{"asset":{"version":"2.0","generator":"Blockbench 4.12.5 glTF exporter"},"scenes":[{"nodes":[3],"name":"blockbench_export"}],"scene":0,"nodes":[{"name":"cube","mesh":0},{"scale":[0.025787965616045846,0.025787965616045846,0.025787965616045846],"name":"locator"},{"name":"locator","children":[1]},{"children":[0,2]}],"bufferViews":[{"buffer":0,"byteOffset":0,"byteLength":2568,"target":34962,"byteStride":12},{"buffer":0,"byteOffset":2568,"byteLength":2568,"target":34962,"byteStride":12},{"buffer":0,"byteOffset":5136,"byteLength":1712,"target":34962,"byteStride":8},{"buffer":0,"byteOffset":6848,"byteLength":612,"target":34963}],"buffers":[{"byteLength":7460,"uri":"data:application/octet-stream;base64,"}],"accessors":[{"bufferView":0,"componentType":5126,"count":214,"max":[0.5625,1,0.5625],"min":[-0.5625,0,-0.5625],"type":"VEC3"},{"bufferView":1,"componentType":5126,"count":214,"max":[1,1,1],"min":[-1,-1,-1],"type":"VEC3"},{"bufferView":2,"componentType":5126,"count":214,"max":[1,0.96875],"min":[0,0],"type":"VEC2"},{"bufferView":3,"componentType":5123,"count":306,"max":[213],"min":[0],"type":"SCALAR"}],"materials":[{"pbrMetallicRoughness":{"metallicFactor":0,"roughnessFactor":1,"baseColorTexture":{"index":0}},"alphaMode":"MASK","alphaCutoff":0.05,"doubleSided":true}],"textures":[{"sampler":0,"source":0,"name":"dirt.png"}],"samplers":[{"magFilter":9728,"minFilter":9728,"wrapS":33071,"wrapT":33071}],"images":[{"mimeType":"image/png","name":"dirt.png","uri":"dirt.png"}],"meshes":[{"primitives":[{"mode":4,"attributes":{"POSITION":0,"NORMAL":1,"TEXCOORD_0":2},"indices":3,"material":0}]}]}