{"asset":{"version":"2.0","generator":"Blockbench 4.12.5 glTF exporter"},"scenes":[{"nodes":[11],"name":"blockbench_export"}],"scene":0,"nodes":[{"translation":[0,0.875,0],"name":"head"},{"translation":[0.125,-0.25,0],"name":"leftarm2"},{"translation":[0.375,0.6875,0],"name":"leftarm","children":[1]},{"translation":[-0.125,-0.25,0],"name":"rightarm2"},{"translation":[-0.375,0.6875,0],"name":"rightarm","children":[3]},{"translation":[0,0.625,0],"name":"body","children":[0,2,4]},{"translation":[0,-0.25,0],"name":"leftleg2"},{"translation":[0.1875,0.625,0],"name":"leftleg","children":[6]},{"translation":[0,-0.25,0],"name":"rightleg2"},{"translation":[-0.1875,0.625,0],"name":"rightleg","children":[8]},{"name":"main","children":[5,7,9]},{"name":"main","mesh":0,"children":[10],"skin":0}],"bufferViews":[{"buffer":0,"byteOffset":0,"byteLength":2880,"target":34962,"byteStride":12},{"buffer":0,"byteOffset":2880,"byteLength":2880,"target":34962,"byteStride":12},{"buffer":0,"byteOffset":5760,"byteLength":1920,"target":34962,"byteStride":8},{"buffer":0,"byteOffset":7680,"byteLength":1920,"target":34962,"byteStride":8},{"buffer":0,"byteOffset":9600,"byteLength":3840,"target":34962,"byteStride":16},{"buffer":0,"byteOffset":13440,"byteLength":720,"target":34963},{"buffer":0,"byteOffset":14160,"byteLength":704},{"buffer":0,"byteOffset":14864,"byteLength":4},{"buffer":0,"byteOffset":14868,"byteLength":16},{"buffer":0,"byteOffset":14884,"byteLength":64},{"buffer":0,"byteOffset":14948,"byteLength":256},{"buffer":0,"byteOffset":15204,"byteLength":64},{"buffer":0,"byteOffset":15268,"byteLength":256},{"buffer":0,"byteOffset":15524,"byteLength":64},{"buffer":0,"byteOffset":15588,"byteLength":256},{"buffer":0,"byteOffset":15844,"byteLength":64},{"buffer":0,"byteOffset":15908,"byteLength":256},{"buffer":0,"byteOffset":16164,"byteLength":4},{"buffer":0,"byteOffset":16168,"byteLength":16},{"buffer":0,"byteOffset":16184,"byteLength":56},{"buffer":0,"byteOffset":16240,"byteLength":224},{"buffer":0,"byteOffset":16464,"byteLength":56},{"buffer":0,"byteOffset":16520,"byteLength":224},{"buffer":0,"byteOffset":16744,"byteLength":56},{"buffer":0,"byteOffset":16800,"byteLength":224},{"buffer":0,"byteOffset":17024,"byteLength":56},{"buffer":0,"byteOffset":17080,"byteLength":224},{"buffer":0,"byteOffset":17304,"byteLength":4},{"buffer":0,"byteOffset":17308,"byteLength":16},{"buffer":0,"byteOffset":17324,"byteLength":4},{"buffer":0,"byteOffset":17328,"byteLength":16},{"buffer":0,"byteOffset":17344,"byteLength":4},{"buffer":0,"byteOffset":17348,"byteLength":16},{"buffer":0,"byteOffset":17364,"byteLength":20},{"buffer":0,"byteOffset":17384,"byteLength":80},{"buffer":0,"byteOffset":17464,"byteLength":20},{"buffer":0,"byteOffset":17484,"byteLength":80},{"buffer":0,"byteOffset":17564,"byteLength":40},{"buffer":0,"byteOffset":17604,"byteLength":160},{"buffer":0,"byteOffset":17764,"byteLength":40},{"buffer":0,"byteOffset":17804,"byteLength":160},{"buffer":0,"byteOffset":17964,"byteLength":4},{"buffer":0,"byteOffset":17968,"byteLength":16},{"buffer":0,"byteOffset":17984,"byteLength":4},{"buffer":0,"byteOffset":17988,"byteLength":16},{"buffer":0,"byteOffset":18004,"byteLength":4},{"buffer":0,"byteOffset":18008,"byteLength":16},{"buffer":0,"byteOffset":18024,"byteLength":4},{"buffer":0,"byteOffset":18028,"byteLength":16},{"buffer":0,"byteOffset":18044,"byteLength":4},{"buffer":0,"byteOffset":18048,"byteLength":16},{"buffer":0,"byteOffset":18064,"byteLength":4},{"buffer":0,"byteOffset":18068,"byteLength":16},{"buffer":0,"byteOffset":18084,"byteLength":92},{"buffer":0,"byteOffset":18176,"byteLength":368},{"buffer":0,"byteOffset":18544,"byteLength":92},{"buffer":0,"byteOffset":18636,"byteLength":368},{"buffer":0,"byteOffset":19004,"byteLength":8},{"buffer":0,"byteOffset":19012,"byteLength":32},{"buffer":0,"byteOffset":19044,"byteLength":8},{"buffer":0,"byteOffset":19052,"byteLength":32},{"buffer":0,"byteOffset":19084,"byteLength":8},{"buffer":0,"byteOffset":19092,"byteLength":32},{"buffer":0,"byteOffset":19124,"byteLength":8},{"buffer":0,"byteOffset":19132,"byteLength":32},{"buffer":0,"byteOffset":19164,"byteLength":4},{"buffer":0,"byteOffset":19168,"byteLength":16},{"buffer":0,"byteOffset":19184,"byteLength":4},{"buffer":0,"byteOffset":19188,"byteLength":16},{"buffer":0,"byteOffset":19204,"byteLength":4},{"buffer":0,"byteOffset":19208,"byteLength":16},{"buffer":0,"byteOffset":19224,"byteLength":4},{"buffer":0,"byteOffset":19228,"byteLength":16}],"buffers":[{"byteLength":19244,"uri":"data:application/octet-stream;base64,"}],"accessors":[{"bufferView":0,"componentType":5126,"count":240,"max":[0.625,2,0.25],"min":[-0.625,0,-0.25],"type":"VEC3"},{"bufferView":1,"componentType":5126,"count":240,"max":[1,1,1],"min":[-1,-1,-1],"type":"VEC3"},{"bufferView":2,"componentType":5126,"count":240,"max":[0.999755859375,0.984130859375],"min":[0.000244140625,0.000244140625],"type":"VEC2"},{"bufferView":3,"componentType":5123,"count":240,"max":[0,10,0,0],"min":[0,1,0,0],"type":"VEC4"},{"bufferView":4,"componentType":5126,"count":240,"max":[0,1,0,0],"min":[0,1,0,0],"type":"VEC4"},{"bufferView":5,"componentType":5123,"count":360,"max":[239],"min":[0],"type":"SCALAR"},{"bufferView":6,"componentType":5126,"count":11,"max":[1,0,0,0,0,1,0,0,0,0,1,0,0.5,0,0,1],"min":[1,0,0,0,0,1,0,0,0,0,1,0,-0.5,-1.5,0,1],"type":"MAT4"},{"bufferView":7,"componentType":5126,"count":1,"max":[0],"min":[0],"type":"SCALAR"},{"bufferView":8,"componentType":5126,"count":1,"max":[0,0,0,1],"min":[0,0,0,1],"type":"VEC4"},{"bufferView":9,"componentType":5126,"count":16,"max":[1],"min":[0],"type":"SCALAR"},{"bufferView":10,"componentType":5126,"count":16,"max":[0.258819043636322,0,0,1],"min":[-0.258819043636322,0,0,0.9659258127212524],"type":"VEC4"},{"bufferView":11,"componentType":5126,"count":16,"max":[1],"min":[0],"type":"SCALAR"},{"bufferView":12,"componentType":5126,"count":16,"max":[0.258819043636322,0,0,1],"min":[-0.258819043636322,0,0,0.9659258127212524],"type":"VEC4"},{"bufferView":13,"componentType":5126,"count":16,"max":[1],"min":[0],"type":"SCALAR"},{"bufferView":14,"componentType":5126,"count":16,"max":[0.258819043636322,0,0,1],"min":[-0.258819043636322,0,0,0.9659258127212524],"type":"VEC4"},{"bufferView":15,"componentType":5126,"count":16,"max":[1],"min":[0],"type":"SCALAR"},{"bufferView":16,"componentType":5126,"count":16,"max":[0.258819043636322,0,0,1],"min":[-0.258819043636322,0,0,0.9659258127212524],"type":"VEC4"},{"bufferView":17,"componentType":5126,"count":1,"max":[0],"min":[0],"type":"SCALAR"},{"bufferView":18,"componentType":5126,"count":1,"max":[-0.04361938685178757,0,0,0.9990482330322266],"min":[-0.04361938685178757,0,0,0.9990482330322266],"type":"VEC4"},{"bufferView":19,"componentType":5126,"count":14,"max":[0.75],"min":[0],"type":"SCALAR"},{"bufferView":20,"componentType":5126,"count":14,"max":[0.3420201539993286,0,0,1],"min":[-0.3420201539993286,0,0,0.9396926164627075],"type":"VEC4"},{"bufferView":21,"componentType":5126,"count":14,"max":[0.75],"min":[0],"type":"SCALAR"},{"bufferView":22,"componentType":5126,"count":14,"max":[0.3420201539993286,0,0,1],"min":[-0.3420201539993286,0,0,0.9396926164627075],"type":"VEC4"},{"bufferView":23,"componentType":5126,"count":14,"max":[0.75],"min":[0],"type":"SCALAR"},{"bufferView":24,"componentType":5126,"count":14,"max":[0.3826834261417389,0,0,1],"min":[-0.3826834261417389,0,0,0.9238795042037964],"type":"VEC4"},{"bufferView":25,"componentType":5126,"count":14,"max":[0.75],"min":[0],"type":"SCALAR"},{"bufferView":26,"componentType":5126,"count":14,"max":[0.3826834261417389,0,0,1],"min":[-0.3826834261417389,0,0,0.9238795042037964],"type":"VEC4"},{"bufferView":27,"componentType":5126,"count":1,"max":[0],"min":[0],"type":"SCALAR"},{"bufferView":28,"componentType":5126,"count":1,"max":[0.5,0,0,0.8660253882408142],"min":[0.5,0,0,0.8660253882408142],"type":"VEC4"},{"bufferView":29,"componentType":5126,"count":1,"max":[0],"min":[0],"type":"SCALAR"},{"bufferView":30,"componentType":5126,"count":1,"max":[0.5,0,0,0.8660253882408142],"min":[0.5,0,0,0.8660253882408142],"type":"VEC4"},{"bufferView":31,"componentType":5126,"count":1,"max":[0],"min":[0],"type":"SCALAR"},{"bufferView":32,"componentType":5126,"count":1,"max":[-0.08715574443340302,0,0,0.9961947202682495],"min":[-0.08715574443340302,0,0,0.9961947202682495],"type":"VEC4"},{"bufferView":33,"componentType":5126,"count":5,"max":[0.5],"min":[0],"type":"SCALAR"},{"bufferView":34,"componentType":5126,"count":5,"max":[-0.6087614297866821,0,0,0.7933533191680908],"min":[-0.6087614297866821,0,0,0.7933533191680908],"type":"VEC4"},{"bufferView":35,"componentType":5126,"count":5,"max":[0.5],"min":[0],"type":"SCALAR"},{"bufferView":36,"componentType":5126,"count":5,"max":[-0.6087614297866821,0,0,0.7933533191680908],"min":[-0.6087614297866821,0,0,0.7933533191680908],"type":"VEC4"},{"bufferView":37,"componentType":5126,"count":10,"max":[0.5],"min":[0],"type":"SCALAR"},{"bufferView":38,"componentType":5126,"count":10,"max":[0.3826834261417389,0,0,1],"min":[-0.3826834261417389,0,0,0.9238795042037964],"type":"VEC4"},{"bufferView":39,"componentType":5126,"count":10,"max":[0.5],"min":[0],"type":"SCALAR"},{"bufferView":40,"componentType":5126,"count":10,"max":[0.3826834261417389,0,0,1],"min":[-0.3826834261417389,0,0,0.9238795042037964],"type":"VEC4"},{"bufferView":41,"componentType":5126,"count":1,"max":[0],"min":[0],"type":"SCALAR"},{"bufferView":42,"componentType":5126,"count":1,"max":[-0.19509032368659973,0,0,0.9807852506637573],"min":[-0.19509032368659973,0,0,0.9807852506637573],"type":"VEC4"},{"bufferView":43,"componentType":5126,"count":1,"max":[0],"min":[0],"type":"SCALAR"},{"bufferView":44,"componentType":5126,"count":1,"max":[0.08715574443340302,0,0,0.9961947202682495],"min":[0.08715574443340302,0,0,0.9961947202682495],"type":"VEC4"},{"bufferView":45,"componentType":5126,"count":1,"max":[0],"min":[0],"type":"SCALAR"},{"bufferView":46,"componentType":5126,"count":1,"max":[0.2164396196603775,0,0,0.9762960076332092],"min":[0.2164396196603775,0,0,0.9762960076332092],"type":"VEC4"},{"bufferView":47,"componentType":5126,"count":1,"max":[0],"min":[0],"type":"SCALAR"},{"bufferView":48,"componentType":5126,"count":1,"max":[0.2164396196603775,0,0,0.9762960076332092],"min":[0.2164396196603775,0,0,0.9762960076332092],"type":"VEC4"},{"bufferView":49,"componentType":5126,"count":1,"max":[0],"min":[0],"type":"SCALAR"},{"bufferView":50,"componentType":5126,"count":1,"max":[0.5,0,0,0.8660253882408142],"min":[0.5,0,0,0.8660253882408142],"type":"VEC4"},{"bufferView":51,"componentType":5126,"count":1,"max":[0],"min":[0],"type":"SCALAR"},{"bufferView":52,"componentType":5126,"count":1,"max":[0.5,0,0,0.8660253882408142],"min":[0.5,0,0,0.8660253882408142],"type":"VEC4"},{"bufferView":53,"componentType":5126,"count":23,"max":[1.3333333730697632],"min":[0],"type":"SCALAR"},{"bufferView":54,"componentType":5126,"count":23,"max":[0,0,0,1],"min":[-0.4226182699203491,0,0,0.9063078165054321],"type":"VEC4"},{"bufferView":55,"componentType":5126,"count":23,"max":[1.3333333730697632],"min":[0],"type":"SCALAR"},{"bufferView":56,"componentType":5126,"count":23,"max":[0,0,0,1],"min":[-0.5,0,0,0.8660253882408142],"type":"VEC4"},{"bufferView":57,"componentType":5126,"count":2,"max":[0.25],"min":[0],"type":"SCALAR"},{"bufferView":58,"componentType":5126,"count":2,"max":[0,0,0.4226182699203491,1],"min":[0,0,0,0.9063078165054321],"type":"VEC4"},{"bufferView":59,"componentType":5126,"count":2,"max":[0.25],"min":[0],"type":"SCALAR"},{"bufferView":60,"componentType":5126,"count":2,"max":[0,0,0,1],"min":[0,0,-0.4226182699203491,0.9063078165054321],"type":"VEC4"},{"bufferView":61,"componentType":5126,"count":2,"max":[0.25],"min":[0],"type":"SCALAR"},{"bufferView":62,"componentType":5126,"count":2,"max":[0,0,0.08715574443340302,1],"min":[0,0,0,0.9961947202682495],"type":"VEC4"},{"bufferView":63,"componentType":5126,"count":2,"max":[0.25],"min":[0],"type":"SCALAR"},{"bufferView":64,"componentType":5126,"count":2,"max":[0,0,0,1],"min":[0,0,-0.08715574443340302,0.9961947202682495],"type":"VEC4"},{"bufferView":65,"componentType":5126,"count":1,"max":[0],"min":[0],"type":"SCALAR"},{"bufferView":66,"componentType":5126,"count":1,"max":[0,0,0.4226182699203491,0.9063078165054321],"min":[0,0,0.4226182699203491,0.9063078165054321],"type":"VEC4"},{"bufferView":67,"componentType":5126,"count":1,"max":[0],"min":[0],"type":"SCALAR"},{"bufferView":68,"componentType":5126,"count":1,"max":[0,0,-0.4226182699203491,0.9063078165054321],"min":[0,0,-0.4226182699203491,0.9063078165054321],"type":"VEC4"},{"bufferView":69,"componentType":5126,"count":1,"max":[0],"min":[0],"type":"SCALAR"},{"bufferView":70,"componentType":5126,"count":1,"max":[0,0,0.08715574443340302,0.9961947202682495],"min":[0,0,0.08715574443340302,0.9961947202682495],"type":"VEC4"},{"bufferView":71,"componentType":5126,"count":1,"max":[0],"min":[0],"type":"SCALAR"},{"bufferView":72,"componentType":5126,"count":1,"max":[0,0,-0.08715574443340302,0.9961947202682495],"min":[0,0,-0.08715574443340302,0.9961947202682495],"type":"VEC4"}],"materials":[{"pbrMetallicRoughness":{"metallicFactor":0,"roughnessFactor":1,"baseColorTexture":{"index":0}},"alphaMode":"MASK","alphaCutoff":0.05,"doubleSided":true}],"textures":[{"sampler":0,"source":0,"name":"player-test.png"}],"samplers":[{"magFilter":9728,"minFilter":9728,"wrapS":33071,"wrapT":33071}],"images":[{"mimeType":"image/png","uri":"data:image/png;base64,"}],"meshes":[{"primitives":[{"mode":4,"attributes":{"POSITION":0,"NORMAL":1,"TEXCOORD_0":2,"JOINTS_0":3,"WEIGHTS_0":4},"indices":5,"material":0}]}],"skins":[{"inverseBindMatrices":6,"joints":[10,5,0,2,1,4,3,7,6,9,8],"skeleton":10}],"animations":[{"name":"idle","samplers":[{"input":7,"output":8,"interpolation":"LINEAR"}],"channels":[{"sampler":0,"target":{"node":5,"path":"rotation"}}]},{"name":"walking","samplers":[{"input":9,"output":10,"interpolation":"LINEAR"},{"input":11,"output":12,"interpolation":"LINEAR"},{"input":13,"output":14,"interpolation":"LINEAR"},{"input":15,"output":16,"interpolation":"LINEAR"}],"channels":[{"sampler":0,"target":{"node":2,"path":"rotation"}},{"sampler":1,"target":{"node":4,"path":"rotation"}},{"sampler":2,"target":{"node":7,"path":"rotation"}},{"sampler":3,"target":{"node":9,"path":"rotation"}}]},{"name":"running","samplers":[{"input":17,"output":18,"interpolation":"LINEAR"},{"input":19,"output":20,"interpolation":"LINEAR"},{"input":21,"output":22,"interpolation":"LINEAR"},{"input":23,"output":24,"interpolation":"LINEAR"},{"input":25,"output":26,"interpolation":"LINEAR"},{"input":27,"output":28,"interpolation":"LINEAR"},{"input":29,"output":30,"interpolation":"LINEAR"}],"channels":[{"sampler":0,"target":{"node":5,"path":"rotation"}},{"sampler":1,"target":{"node":2,"path":"rotation"}},{"sampler":2,"target":{"node":4,"path":"rotation"}},{"sampler":3,"target":{"node":7,"path":"rotation"}},{"sampler":4,"target":{"node":9,"path":"rotation"}},{"sampler":5,"target":{"node":1,"path":"rotation"}},{"sampler":6,"target":{"node":3,"path":"rotation"}}]},{"name":"sprinting","samplers":[{"input":31,"output":32,"interpolation":"LINEAR"},{"input":33,"output":34,"interpolation":"LINEAR"},{"input":35,"output":36,"interpolation":"LINEAR"},{"input":37,"output":38,"interpolation":"LINEAR"},{"input":39,"output":40,"interpolation":"LINEAR"}],"channels":[{"sampler":0,"target":{"node":5,"path":"rotation"}},{"sampler":1,"target":{"node":2,"path":"rotation"}},{"sampler":2,"target":{"node":4,"path":"rotation"}},{"sampler":3,"target":{"node":7,"path":"rotation"}},{"sampler":4,"target":{"node":9,"path":"rotation"}}]},{"name":"sneaking","samplers":[{"input":41,"output":42,"interpolation":"LINEAR"},{"input":43,"output":44,"interpolation":"LINEAR"},{"input":45,"output":46,"interpolation":"LINEAR"},{"input":47,"output":48,"interpolation":"LINEAR"},{"input":49,"output":50,"interpolation":"LINEAR"},{"input":51,"output":52,"interpolation":"LINEAR"},{"input":53,"output":54,"interpolation":"LINEAR"},{"input":55,"output":56,"interpolation":"LINEAR"}],"channels":[{"sampler":0,"target":{"node":5,"path":"rotation"}},{"sampler":1,"target":{"node":0,"path":"rotation"}},{"sampler":2,"target":{"node":7,"path":"rotation"}},{"sampler":3,"target":{"node":9,"path":"rotation"}},{"sampler":4,"target":{"node":1,"path":"rotation"}},{"sampler":5,"target":{"node":3,"path":"rotation"}},{"sampler":6,"target":{"node":6,"path":"rotation"}},{"sampler":7,"target":{"node":8,"path":"rotation"}}]},{"name":"jumping","samplers":[{"input":57,"output":58,"interpolation":"LINEAR"},{"input":59,"output":60,"interpolation":"LINEAR"},{"input":61,"output":62,"interpolation":"LINEAR"},{"input":63,"output":64,"interpolation":"LINEAR"}],"channels":[{"sampler":0,"target":{"node":2,"path":"rotation"}},{"sampler":1,"target":{"node":4,"path":"rotation"}},{"sampler":2,"target":{"node":7,"path":"rotation"}},{"sampler":3,"target":{"node":9,"path":"rotation"}}]},{"name":"falling","samplers":[{"input":65,"output":66,"interpolation":"LINEAR"},{"input":67,"output":68,"interpolation":"LINEAR"},{"input":69,"output":70,"interpolation":"LINEAR"},{"input":71,"output":72,"interpolation":"LINEAR"}],"channels":[{"sampler":0,"target":{"node":2,"path":"rotation"}},{"sampler":1,"target":{"node":4,"path":"rotation"}},{"sampler":2,"target":{"node":7,"path":"rotation"}},{"sampler":3,"target":{"node":9,"path":"rotation"}}]}]}